<?xml version="1.0" standalone="no"?>
<!DOCTYPE svg PUBLIC "-//W3C//DTD SVG 20010904//EN"
 "http://www.w3.org/TR/2001/REC-SVG-20010904/DTD/svg10.dtd">
<svg version="1.0" xmlns="http://www.w3.org/2000/svg"
 width="1024.000000pt" height="1024.000000pt" viewBox="0 0 1024.000000 1024.000000"
 preserveAspectRatio="xMidYMid meet">
<metadata>
Created by potrace 1.14, written by Peter Selinger 2001-2017
</metadata>
<g transform="translate(0.000000,1024.000000) scale(0.100000,-0.100000)"
fill="#000000" stroke="none">
<path d="M4807 9065 c-35 -25 -46 -44 -50 -93 -1 -16 -14 -28 -43 -42 -23 -12
-67 -47 -98 -80 -54 -57 -56 -60 -56 -114 0 -47 -3 -56 -17 -56 -40 0 -92 -22
-129 -54 -36 -31 -39 -38 -44 -97 l-5 -64 -170 -6 c-154 -5 -177 -8 -238 -32
-139 -55 -273 -141 -372 -238 l-51 -49 -91 0 -91 0 -59 -52 c-32 -29 -67 -61
-78 -71 -11 -10 -29 -36 -40 -59 -14 -29 -28 -44 -49 -49 -39 -11 -86 -45
-118 -87 -23 -29 -28 -45 -28 -93 0 -57 -1 -59 -32 -73 -18 -8 -78 -59 -133
-115 l-100 -101 -5 -337 c-5 -323 -6 -336 -25 -347 -11 -6 -57 -48 -102 -94
l-83 -83 0 -420 0 -419 73 -76 c39 -43 86 -85 102 -95 l30 -19 -35 -1 c-19 -1
-144 -2 -277 -2 -241 -2 -241 -2 -267 -26 -14 -14 -26 -33 -26 -44 0 -11 -27
-45 -60 -77 l-60 -57 0 -70 0 -70 -48 -30 c-26 -17 -75 -61 -110 -96 l-62 -65
0 -117 c0 -82 4 -124 15 -144 18 -37 120 -129 161 -147 25 -10 33 -21 38 -52
5 -33 19 -51 85 -110 43 -40 90 -76 104 -81 15 -6 26 -20 30 -39 5 -22 62 -80
249 -248 417 -375 577 -524 583 -545 6 -17 -38 -65 -251 -280 -143 -143 -262
-267 -266 -277 -4 -9 -7 -180 -7 -379 l-1 -362 29 -33 c16 -18 63 -62 105 -98
l75 -65 1 -167 c0 -145 -2 -168 -15 -168 -9 0 -43 -26 -75 -58 l-60 -58 0 -81
0 -82 70 -67 c38 -38 78 -73 87 -78 10 -5 26 -20 36 -33 l18 -23 657 3 657 2
60 43 c33 23 74 52 92 63 42 27 46 51 38 238 -3 87 -3 174 0 194 7 34 9 36 59
43 49 7 54 10 140 105 l89 99 346 0 346 0 52 -67 c84 -110 110 -131 168 -135
l50 -3 3 -217 2 -217 86 -68 c47 -37 97 -71 112 -74 15 -4 280 -7 588 -8 535
-1 562 0 585 18 13 10 65 46 114 79 148 99 137 77 135 271 -1 91 -1 178 -1
194 l1 27 149 0 149 0 73 70 74 69 90 1 c74 0 96 4 125 21 45 28 49 35 51 89
l1 45 239 230 239 229 0 345 0 345 -113 113 -113 113 -99 0 c-55 0 -106 -4
-113 -8 -7 -5 -62 -56 -122 -115 l-110 -107 -109 0 -110 0 -3 215 -3 214 -54
55 c-55 55 -55 55 -35 77 59 65 362 337 420 377 l69 47 3 63 3 62 53 39 c74
55 104 94 111 145 5 32 13 46 29 54 39 17 120 93 139 129 16 30 18 55 15 170
l-3 136 -70 64 c-38 36 -89 74 -113 84 l-43 19 2 67 2 67 -56 52 c-41 37 -57
58 -57 77 0 14 -11 38 -24 54 -21 25 -31 28 -100 31 l-76 4 0 115 0 114 -47
51 c-27 28 -83 82 -126 119 -77 69 -77 69 -137 69 l-60 0 0 546 0 545 -57 61
-58 60 -1 97 c-1 54 -6 106 -12 116 -22 40 -188 197 -213 202 -23 4 -27 11
-32 50 -6 53 -10 58 -187 217 -206 184 -232 205 -272 223 l-38 17 0 211 0 211
-44 43 c-32 32 -54 44 -85 48 l-41 6 0 50 c0 47 -3 54 -46 94 l-46 45 -181 -4
c-159 -3 -186 -5 -210 -22 -37 -25 -50 -51 -57 -111 l-5 -50 -63 -5 c-56 -4
-67 -9 -93 -38 -26 -29 -29 -39 -29 -102 0 -52 -3 -70 -14 -70 -10 0 -15 39
-20 177 -8 200 -10 204 -105 270 -68 48 -71 51 -71 82 0 31 -39 77 -78 92 -13
5 -105 9 -205 9 -179 0 -183 -1 -220 -25z m233 -405 l0 -200 -220 0 -220 0 0
85 0 85 99 0 99 0 6 31 c3 17 6 69 6 115 l0 84 115 0 115 0 0 -200z m940 -175
c0 -118 -2 -135 -16 -135 -9 0 -59 18 -110 41 l-94 41 0 94 0 94 110 0 110 0
0 -135z m-259 -272 c7 -7 10 -16 6 -19 -3 -3 -239 -8 -524 -10 -285 -2 -528
-6 -540 -9 -30 -7 -41 -52 -42 -164 0 -66 -4 -97 -13 -103 -7 -4 -71 -7 -143
-6 l-130 3 -3 138 -3 137 -134 0 -135 0 0 -135 0 -135 135 0 135 0 0 -140 c0
-165 14 -152 -160 -148 l-115 3 -3 138 -3 138 -132 -3 -132 -3 -5 -130 -5
-130 -75 -8 c-95 -9 -92 -9 -177 -1 -222 20 -436 -144 -498 -382 -21 -82 -19
-212 7 -319 32 -139 33 -160 9 -194 -18 -25 -21 -43 -21 -131 0 -82 3 -101 13
-97 8 3 56 2 107 -2 l93 -8 50 -52 c40 -41 52 -63 63 -108 23 -98 -7 -194 -78
-252 -28 -23 -35 -23 -217 -25 l-187 -1 -36 30 c-20 17 -37 39 -38 50 -5 52
-19 -73 -19 -174 -1 -149 0 -151 123 -151 50 0 98 -5 106 -10 17 -10 27 -154
16 -215 -6 -30 -11 -35 -34 -35 -21 0 -53 26 -146 119 l-118 118 1 363 c1 235
5 370 12 383 24 44 82 111 139 160 l60 52 0 269 c0 305 6 343 71 464 24 45 39
87 39 108 l0 34 64 0 c92 0 96 3 96 65 0 51 2 55 48 95 62 55 139 93 232 115
115 27 126 35 134 93 9 68 30 85 119 93 55 5 74 11 88 28 23 28 110 66 219 96
l85 24 792 -2 c612 -2 795 -5 804 -14z m-2150 -778 c66 -24 109 -62 136 -123
54 -116 -1 -250 -124 -303 -114 -49 -253 4 -308 117 -26 53 -25 146 2 199 29
56 63 85 125 106 65 23 112 24 169 4z m2340 0 c51 -18 103 -65 130 -117 23
-44 25 -133 6 -181 -35 -83 -132 -147 -222 -147 -91 0 -187 64 -222 149 -33
77 -9 195 49 249 60 55 176 76 259 47z m687 -950 c69 -35 112 -113 112 -203 0
-69 -13 -114 -47 -160 -46 -62 -67 -67 -278 -67 -213 0 -229 4 -286 75 -62 77
-61 223 3 296 59 67 81 73 284 74 144 0 187 -3 212 -15z m-1786 -730 c98 -20
152 -48 207 -104 41 -42 50 -59 56 -99 3 -26 9 -53 13 -59 4 -5 30 -12 58 -15
107 -10 129 -51 129 -235 l0 -133 -612 0 -613 0 0 149 c0 147 0 149 26 175 29
29 80 46 136 46 40 0 42 3 53 77 13 83 128 169 265 199 76 17 202 16 282 -1z
m-2382 -545 c0 -72 -4 -120 -10 -120 -6 0 -8 -20 -4 -49 l5 -50 -111 -3 c-62
-2 -113 -1 -114 2 -1 3 1 76 4 163 4 125 8 160 20 167 8 5 59 10 113 10 l97 0
0 -120z m5288 104 c21 -15 22 -21 22 -170 l0 -154 -113 0 -114 0 -6 98 c-9
126 -9 227 0 235 3 4 47 7 97 7 67 0 98 -4 114 -16z m-4849 -106 c36 -38 71
-68 78 -68 9 0 33 -49 33 -66 0 -2 -67 -4 -148 -4 l-148 0 3 108 c1 59 3 112
3 119 0 21 34 20 74 -1 22 -12 69 -51 105 -88z m4391 -19 l0 -119 -150 0
c-176 0 -173 -7 -60 108 96 97 155 140 186 134 24 -4 24 -6 24 -123z m-5088
-319 l3 -110 -107 0 -108 0 0 110 0 110 104 0 105 0 3 -110z m5816 3 l-3 -108
-107 -3 -108 -3 0 111 0 110 110 0 111 0 -3 -107z m-4778 -286 c35 -27 50 -62
50 -115 0 -72 -20 -108 -68 -121 -48 -14 -188 -14 -213 -1 -27 15 -49 62 -50
112 -3 57 8 86 40 114 23 21 36 23 126 23 63 0 106 -4 115 -12z m3517 -15 c36
-34 49 -91 34 -149 -19 -69 -37 -78 -162 -77 -100 1 -112 3 -134 24 -53 50
-57 151 -8 202 26 27 30 28 133 28 102 0 107 -1 137 -28z m-1377 -263 l0 -107
108 -3 c100 -4 109 -6 145 -33 48 -37 67 -82 67 -162 l0 -64 55 0 c75 0 127
-27 160 -84 l26 -44 -3 -479 -3 -479 -25 -37 c-31 -45 -89 -74 -161 -80 l-54
-4 -6 -94 c-7 -112 -11 -122 -56 -150 -28 -17 -55 -23 -122 -25 -47 -2 -96 -6
-108 -9 -29 -7 -43 -53 -43 -141 l0 -74 -635 0 -635 0 0 79 c0 89 -10 125 -37
136 -10 4 -57 9 -105 10 -141 4 -178 44 -178 190 l0 85 -53 0 c-73 0 -135 33
-164 86 -22 40 -22 44 -23 516 l-2 476 28 42 c33 49 99 84 164 85 l45 0 3 74
c3 82 18 113 74 153 26 18 50 23 132 27 l101 6 3 102 3 103 217 3 c119 1 412
3 650 3 l432 1 0 -108z m-2066 -595 c32 -5 36 -10 36 -38 1 -17 1 -111 1 -209
l-1 -179 -25 -20 c-24 -19 -25 -24 -25 -131 0 -62 -5 -119 -10 -127 -7 -11
-32 -16 -97 -18 -48 -1 -98 -5 -110 -8 l-23 -4 0 -265 c0 -245 -1 -265 -17
-266 -33 -3 -77 -3 -180 -1 l-103 2 0 233 0 233 43 41 c39 38 47 42 115 48
l72 7 0 77 c0 117 33 155 146 164 40 4 84 12 98 19 l27 12 -3 223 c-2 168 0
222 9 219 6 -3 28 -8 47 -12z m-144 -2163 l0 -108 -37 1 c-21 1 -71 3 -110 4
l-73 2 0 105 0 105 110 0 110 0 0 -109z m478 2 l3 -103 -116 0 -115 0 0 105 0
106 113 -3 112 -3 3 -102z m2602 0 l0 -108 -30 1 c-16 1 -68 2 -115 3 l-85 1
0 105 0 105 115 0 115 0 0 -107z m482 35 c2 -40 2 -89 0 -108 l-3 -35 -114 3
-115 3 0 105 0 104 114 0 114 0 4 -72z"/>
<path d="M4071 2464 c0 -11 3 -14 6 -6 3 7 2 16 -1 19 -3 4 -6 -2 -5 -13z"/>
<path d="M4116 2355 c-3 -8 -12 -15 -20 -15 -7 0 -17 -7 -20 -16 -8 -21 -8
-59 1 -51 3 4 13 1 21 -6 19 -15 785 -23 1022 -10 l155 8 -160 5 -160 6 163 2
162 2 -4 26 c-3 15 -8 29 -11 33 -4 3 -142 8 -308 9 -166 2 -306 7 -312 11 -5
5 -120 5 -253 2 -134 -3 -246 -3 -249 2 -7 12 -20 8 -27 -8z m987 -52 c-13 -2
-35 -2 -50 0 -16 2 -5 4 22 4 28 0 40 -2 28 -4z"/>
<path d="M5302 2330 c0 -14 2 -19 5 -12 2 6 2 18 0 25 -3 6 -5 1 -5 -13z"/>
<path d="M5300 2270 c0 -19 3 -21 12 -12 9 9 9 15 0 24 -9 9 -12 7 -12 -12z"/>
</g>
</svg>
